<svg width="54" height="53" viewBox="0 0 54 53" fill="none" xmlns="http://www.w3.org/2000/svg">
<path d="M21.1534 26.4119V23.821C21.1534 20.6042 23.4314 19.2869 26.2188 20.8953L28.4676 22.1908L30.7164 23.4862C33.5038 25.0946 33.5038 27.7292 30.7164 29.3375L28.4676 30.633L26.2188 31.9284C23.4314 33.5368 21.1534 32.2195 21.1534 29.0028V26.4119Z" stroke="white" stroke-width="2.096" stroke-miterlimit="10" stroke-linecap="round" stroke-linejoin="round"/>
<g opacity="0.8" clip-path="url(#clip0_1_197)">
<path d="M29.1586 4.92526H20.4253C9.50863 4.92526 5.14197 9.29193 5.14197 20.2086V33.3086C5.14197 44.2253 9.50863 48.5919 20.4253 48.5919H33.5253C44.442 48.5919 48.8086 44.2253 48.8086 33.3086V22.3919" stroke="white" stroke-width="2.096" stroke-linecap="round" stroke-linejoin="round"/>
</g>
<path d="M40.8027 19.4794V4.92383L45.8972 9.77568" stroke="white" stroke-width="2.096" stroke-linecap="round" stroke-linejoin="round"/>
<path d="M40.8025 4.92383L35.708 10.0183" stroke="white" stroke-width="2.096" stroke-linecap="round" stroke-linejoin="round"/>
<defs>
<clipPath id="clip0_1_197">
<rect width="52.4" height="52.4" fill="white" transform="translate(0.775391 0.558594)"/>
</clipPath>
</defs>
</svg>
